<?xml version="1.0" encoding="UTF-8" standalone="no"?>
<!-- This Source Code Form is subject to the terms of the Mozilla Public
   - License, v. 2.0. If a copy of the MPL was not distributed with this
   - file, You can obtain one at http://mozilla.org/MPL/2.0/. -->

<svg
   width="20"
   height="20"
   viewBox="0 0 20 20"
   version="1.1"
   id="svg4"
   sodipodi:docname="refresh-16-light.svg"
   inkscape:version="1.1.1 (3bf5ae0d25, 2021-09-20, custom)"
   xmlns:inkscape="http://www.inkscape.org/namespaces/inkscape"
   xmlns:sodipodi="http://sodipodi.sourceforge.net/DTD/sodipodi-0.dtd"
   xmlns="http://www.w3.org/2000/svg"
   xmlns:svg="http://www.w3.org/2000/svg">
  <defs
     id="defs8">
    <clipPath
       id="a"
       style="fill:url(#linearGradient1328);fill-opacity:1">
      <path
         d="m 12.71,8 c 0,0 3.99,0 3.99,0 0,0 0.3,-0.3 0.3,-0.3 0,0 0,-3.99 0,-3.99 A 0.5,0.5 0 0 0 16.15,3.36 c 0,0 -1.46,1.46 -1.46,1.46 A 6.95,6.95 0 0 0 10,3.01 c -3.86,0 -7,3.14 -7,7 0,3.86 3.14,7 7,7 a 6.97,6.97 0 0 0 6.97,-6.32 0.63,0.63 0 0 0 -0.56,-0.68 0.64,0.64 0 0 0 -0.68,0.56 5.73,5.73 0 0 1 -5.72,5.19 5.76,5.76 0 0 1 -5.75,-5.75 5.76,5.76 0 0 1 5.75,-5.75 c 1.44,0 2.78,0.53 3.81,1.45 0,0 -1.45,1.45 -1.45,1.45 a 0.5,0.5 0 0 0 0.35,0.85 z"
         id="path7"
         style="fill:url(#linearGradient1328);fill-opacity:1" />
    </clipPath>
    <clipPath
       id="clipPath2446"
       style="fill:url(#linearGradient1328);fill-opacity:1">
      <path
         d="m 12.71,8 c 0,0 3.99,0 3.99,0 0,0 0.3,-0.3 0.3,-0.3 0,0 0,-3.99 0,-3.99 A 0.5,0.5 0 0 0 16.15,3.36 c 0,0 -1.46,1.46 -1.46,1.46 A 6.95,6.95 0 0 0 10,3.01 c -3.86,0 -7,3.14 -7,7 0,3.86 3.14,7 7,7 a 6.97,6.97 0 0 0 6.97,-6.32 0.63,0.63 0 0 0 -0.56,-0.68 0.64,0.64 0 0 0 -0.68,0.56 5.73,5.73 0 0 1 -5.72,5.19 5.76,5.76 0 0 1 -5.75,-5.75 5.76,5.76 0 0 1 5.75,-5.75 c 1.44,0 2.78,0.53 3.81,1.45 0,0 -1.45,1.45 -1.45,1.45 a 0.5,0.5 0 0 0 0.35,0.85 z"
         id="path2444"
         style="fill:url(#linearGradient1328);fill-opacity:1" />
    </clipPath>
    <defs
       id="defs10"
       style="fill:url(#linearGradient1328);fill-opacity:1">
      <clipPath
         id="clipPath920"
         style="fill:url(#linearGradient1328);fill-opacity:1">
        <path
           d="m 12.71,8 c 0,0 3.99,0 3.99,0 0,0 0.3,-0.3 0.3,-0.3 0,0 0,-3.99 0,-3.99 A 0.5,0.5 0 0 0 16.15,3.36 c 0,0 -1.46,1.46 -1.46,1.46 A 6.95,6.95 0 0 0 10,3.01 c -3.86,0 -7,3.14 -7,7 0,3.86 3.14,7 7,7 a 6.97,6.97 0 0 0 6.97,-6.32 0.63,0.63 0 0 0 -0.56,-0.68 0.64,0.64 0 0 0 -0.68,0.56 5.73,5.73 0 0 1 -5.72,5.19 5.76,5.76 0 0 1 -5.75,-5.75 5.76,5.76 0 0 1 5.75,-5.75 c 1.44,0 2.78,0.53 3.81,1.45 0,0 -1.45,1.45 -1.45,1.45 a 0.5,0.5 0 0 0 0.35,0.85 z"
           id="path918"
           style="fill:url(#linearGradient1328);fill-opacity:1" />
      </clipPath>
    </defs>
  </defs>
  <sodipodi:namedview
     id="namedview6"
     pagecolor="#ffffff"
     bordercolor="#666666"
     borderopacity="1.0"
     inkscape:pageshadow="2"
     inkscape:pageopacity="0.0"
     inkscape:pagecheckerboard="0"
     showgrid="false"
     inkscape:zoom="41.5"
     inkscape:cx="8"
     inkscape:cy="9.2771084"
     inkscape:window-width="1920"
     inkscape:window-height="1020"
     inkscape:window-x="1920"
     inkscape:window-y="32"
     inkscape:window-maximized="1"
     inkscape:current-layer="svg4" />
  <g
     clip-path="url(#a)"
     stroke="context-fill"
     stroke-width="8"
     fill="none"
     id="g16"
     style="fill:none;fill-opacity:1;stroke:#6d6d6e;stroke-linecap:butt;stroke-linejoin:miter;stroke-opacity:1;paint-order:normal"
     transform="matrix(1.25,0,0,1.25,-2.5,-2.5125348)">
    <path
       d="m 7.272,5.586 c -3.647,1.048 -3.685,3.897 -3.17,5.68 0.821,2.842 2.696,5.371 6.835,4.918 0.389,-0.043 1.68,-0.478 2.125,-0.559 2.508,-1.254 3.069,-3.243 3.342,-4.8 0.23,-1.314 -1.092,-3.759 -1.092,-3.759 0,0 -1.187,-2.566 -4.187,-1.878 C 9.531,5.148 8.267,5.3 7.272,5.586"
       id="path12"
       style="fill:none;fill-opacity:1;stroke:#6d6d6e;stroke-linecap:butt;stroke-linejoin:miter;stroke-opacity:1;paint-order:normal" />
    <path
       d="m 11.989,-1.5 c -6.786,0 -14.489,0 -14.489,0 0,0 0,24.608 0,24.608 0,0 24.608,0 24.608,0 0,0 0,-24.608 0,-24.608 0,0 -4.775,0 -10.119,0"
       id="path14"
       style="fill:none;fill-opacity:1;stroke:#6d6d6e;stroke-linecap:butt;stroke-linejoin:miter;stroke-opacity:1;paint-order:normal" />
  </g>
</svg>
