<?xml version="1.0" encoding="UTF-8" standalone="no"?>
<!-- This Source Code Form is subject to the terms of the Mozilla Public
   - License, v. 2.0. If a copy of the MPL was not distributed with this
   - file, You can obtain one at http://mozilla.org/MPL/2.0/. -->

<svg
   width="16"
   height="16"
   viewBox="0 0 16 16"
   version="1.1"
   id="svg4"
   sodipodi:docname="stop-16-dark.svg"
   inkscape:version="1.1.1 (3bf5ae0d25, 2021-09-20, custom)"
   xmlns:inkscape="http://www.inkscape.org/namespaces/inkscape"
   xmlns:sodipodi="http://sodipodi.sourceforge.net/DTD/sodipodi-0.dtd"
   xmlns="http://www.w3.org/2000/svg"
   xmlns:svg="http://www.w3.org/2000/svg">
  <defs
     id="defs8" />
  <sodipodi:namedview
     id="namedview6"
     pagecolor="#ffffff"
     bordercolor="#666666"
     borderopacity="1.0"
     inkscape:pageshadow="2"
     inkscape:pageopacity="0.0"
     inkscape:pagecheckerboard="0"
     showgrid="false"
     inkscape:zoom="41.5"
     inkscape:cx="8"
     inkscape:cy="8"
     inkscape:window-width="1920"
     inkscape:window-height="1020"
     inkscape:window-x="1920"
     inkscape:window-y="32"
     inkscape:window-maximized="1"
     inkscape:current-layer="svg4" />
  <path
     id="path2"
     d="M 1.9824219 1.3457031 C 1.8295696 1.3557281 1.6727993 1.4326694 1.5527344 1.5527344 C 1.4326694 1.6727993 1.3557281 1.8295697 1.3457031 1.9824219 C 1.3356782 2.1352741 1.3777675 2.2898229 1.5449219 2.4628906 L 7.0800781 8 L 1.5390625 13.542969 L 1.5371094 13.544922 C 1.3564364 13.719422 1.3102694 13.876042 1.3183594 14.03125 C 1.3264482 14.186458 1.4038192 14.349132 1.5273438 14.472656 C 1.6508683 14.596181 1.8135417 14.673552 1.96875 14.681641 C 2.1239583 14.689729 2.280575 14.643517 2.4550781 14.462891 L 2.4570312 14.460938 L 8 8.9199219 L 13.537109 14.455078 C 13.710177 14.622237 13.864726 14.664327 14.017578 14.654297 C 14.17043 14.644272 14.327201 14.567331 14.447266 14.447266 C 14.567327 14.327201 14.644277 14.17043 14.654297 14.017578 C 14.664322 13.864726 14.622233 13.710177 14.455078 13.537109 L 9.1660156 8.2480469 L 8.9199219 8 L 14.455078 2.4628906 C 14.622237 2.2898229 14.664327 2.1352741 14.654297 1.9824219 C 14.644272 1.8295697 14.567331 1.6727993 14.447266 1.5527344 C 14.327201 1.4326691 14.17043 1.3557281 14.017578 1.3457031 C 13.864726 1.3356782 13.710177 1.3777675 13.537109 1.5449219 L 8 7.0800781 L 2.4628906 1.5449219 C 2.2898229 1.3777671 2.1352741 1.3356781 1.9824219 1.3457031 z "
     style="fill:#b1b1b3;fill-opacity:1" />
</svg>
